<svg width="200" height="200" viewBox="0 0 200 200" fill="none" xmlns="http://www.w3.org/2000/svg">
<rect width="200" height="200" rx="40" fill="white"/>
<path d="M92.2333 35.262C95.2504 29.0693 96.7589 25.973 99.5 25.973C102.241 25.973 103.75 29.0693 106.767 35.262C118.093 58.5087 139.286 106.403 145.344 150.418C146.583 159.416 147.202 163.915 144.779 165.417C142.356 166.918 138.161 164.059 129.77 158.341C121.227 152.52 110.417 147.183 99.5 147.183C88.5826 147.183 77.773 152.52 69.2304 158.341C60.8395 164.059 56.644 166.918 54.2211 165.417C51.7982 163.915 52.4174 159.416 53.6559 150.418C59.7139 106.403 80.9074 58.5087 92.2333 35.262Z" fill="#D10026"/>
</svg>
