<svg width="240" height="141" viewBox="0 0 240 141" fill="none" xmlns="http://www.w3.org/2000/svg">
<path d="M45.9759 67C45.0241 61.6449 40.6491 57.5114 34.456 57.5114C27.1122 57.5114 21.8849 63.3494 21.8849 72.4545C21.8849 81.5597 27.1122 87.3977 34.456 87.3977C40.6491 87.3977 45.0241 83.25 45.9759 77.9091H43.3054C42.4957 81.9006 39.0156 84.8977 34.456 84.8977C28.9446 84.8977 24.456 80.5369 24.456 72.4545C24.456 64.4006 28.9446 60.0114 34.456 60.0114C39.0156 60.0114 42.4957 63.0227 43.3054 67H45.9759ZM80.0646 72.4545C80.0646 63.3494 74.8374 57.5114 67.4794 57.5114C60.1357 57.5114 54.9084 63.3636 54.9084 72.4545C54.9084 81.5455 60.1214 87.3977 67.4794 87.3977C74.8374 87.3977 80.0646 81.5597 80.0646 72.4545ZM77.4794 72.4545C77.4936 80.2812 73.218 84.8977 67.4794 84.8977C61.7266 84.8977 57.4794 80.2528 57.4794 72.4545C57.4794 64.6136 61.7692 60.0114 67.4794 60.0114C73.218 60.0114 77.4794 64.6278 77.4794 72.4545ZM90.4886 57.9091V87H92.9886V63.5199H93.2159L103.031 87H105.446L115.261 63.5199H115.489V87H117.989V57.9091H114.92L104.366 83.25H104.111L93.5568 57.9091H90.4886ZM129.723 87H132.379V75.8778H139.155C145.305 75.8778 148.487 71.9716 148.487 66.8864C148.487 61.8011 145.305 57.9091 139.112 57.9091H129.723V87ZM132.379 73.4915V60.2955H139.041C143.643 60.2955 145.874 63.0653 145.874 66.8864C145.874 70.6932 143.643 73.4915 139.084 73.4915H132.379ZM205.018 65.1818H207.589C207.391 60.7642 203.57 57.4972 198.158 57.4972C192.788 57.4972 188.655 60.7216 188.655 65.4091C188.655 69.1449 191.297 71.4886 195.857 72.8381L199.337 73.8608C202.945 74.9119 205.416 76.2614 205.416 79.2301C205.416 82.7244 202.249 85.0682 197.902 85.0682C193.982 85.0682 190.913 83.179 190.629 79.7273H187.902C188.214 84.3295 191.964 87.4972 197.902 87.4972C204.209 87.4972 207.987 83.9318 207.987 79.2727C207.987 74.4432 203.783 72.5114 200.089 71.4744L197.021 70.5938C194.195 69.7983 191.226 68.3636 191.226 65.2955C191.226 62.1705 194.024 59.8835 198.087 59.8835C201.936 59.8835 204.692 61.9432 205.018 65.1818ZM234.175 65.1818H236.746C236.547 60.7642 232.726 57.4972 227.314 57.4972C221.945 57.4972 217.811 60.7216 217.811 65.4091C217.811 69.1449 220.453 71.4886 225.013 72.8381L228.493 73.8608C232.101 74.9119 234.572 76.2614 234.572 79.2301C234.572 82.7244 231.405 85.0682 227.058 85.0682C223.138 85.0682 220.07 83.179 219.786 79.7273H217.058C217.371 84.3295 221.121 87.4972 227.058 87.4972C233.365 87.4972 237.143 83.9318 237.143 79.2727C237.143 74.4432 232.939 72.5114 229.246 71.4744L226.178 70.5938C223.351 69.7983 220.382 68.3636 220.382 65.2955C220.382 62.1705 223.18 59.8835 227.243 59.8835C231.092 59.8835 233.848 61.9432 234.175 65.1818Z" fill="white"/>
<path d="M19.9599 17.1818H22.5309C22.332 12.7642 18.511 9.49716 13.0991 9.49716C7.72976 9.49716 3.59624 12.7216 3.59624 17.4091C3.59624 21.1449 6.23828 23.4886 10.7979 24.8381L14.2781 25.8608C17.886 26.9119 20.3576 28.2614 20.3576 31.2301C20.3576 34.7244 17.19 37.0682 12.8434 37.0682C8.92294 37.0682 5.85476 35.179 5.57067 31.7273H2.84339C3.15589 36.3295 6.90589 39.4972 12.8434 39.4972C19.1502 39.4972 22.9286 35.9318 22.9286 31.2727C22.9286 26.4432 18.7241 24.5114 15.0309 23.4744L11.9627 22.5938C9.13601 21.7983 6.16726 20.3636 6.16726 17.2955C6.16726 14.1705 8.96555 11.8835 13.0281 11.8835C16.8775 11.8835 19.6332 13.9432 19.9599 17.1818ZM31.5593 12.2955H40.7781V39H43.4343V12.2955H52.6531V9.90909H31.5593V12.2955ZM82.0224 9.90909V28.9858C82.0224 33.6165 78.7269 36.9972 73.6559 36.9972C68.5849 36.9972 65.2894 33.6165 65.2894 28.9858V9.90909H62.6332V29.1705C62.619 35.108 67.1076 39.4972 73.6559 39.4972C80.2184 39.4972 84.6786 35.108 84.6786 29.1705V9.90909H82.0224ZM104.922 39C113.672 39 118.657 33.5312 118.672 24.3835C118.672 15.3352 113.757 9.90909 105.433 9.90909H96.3988V39H104.922ZM99.055 36.6136V12.2955H105.277C112.336 12.2955 116.086 16.8551 116.1 24.3835C116.1 31.983 112.265 36.6136 104.765 36.6136H99.055ZM129.11 39H146.269V36.6136H131.766V25.6335H145.09V23.2472H131.766V12.2955H145.985V9.90909H129.11V39ZM179.516 9.90909H176.902V34.2983H176.675L159.431 9.90909H156.86V39H159.516V14.6392H159.743L176.931 39H179.516V9.90909ZM189.489 12.2955H198.708V39H201.364V12.2955H210.583V9.90909H189.489V12.2955Z" fill="white"/>
<path d="M105.052 95C114.614 121.178 140.006 139.61 169.423 138.985C197.836 138.381 221.742 120.175 230.948 95L228.813 95C219.702 119.067 196.687 136.405 169.381 136.985C141.099 137.586 116.654 120.031 107.186 95L105.052 95Z" fill="white"/>
<line x1="169.338" y1="134.986" x2="169.126" y2="124.988" stroke="white" stroke-width="2"/>
<line x1="174.828" y1="134.717" x2="173.745" y2="124.775" stroke="white" stroke-width="2"/>
<line x1="180.274" y1="133.97" x2="178.329" y2="124.161" stroke="white" stroke-width="2"/>
<line x1="185.634" y1="132.751" x2="182.841" y2="123.149" stroke="white" stroke-width="2"/>
<line x1="190.867" y1="131.07" x2="187.248" y2="121.748" stroke="white" stroke-width="2"/>
<line x1="195.934" y1="128.94" x2="191.517" y2="119.968" stroke="white" stroke-width="2"/>
<line x1="200.796" y1="126.375" x2="195.613" y2="117.823" stroke="white" stroke-width="2"/>
<line x1="205.416" y1="123.397" x2="199.508" y2="115.329" stroke="white" stroke-width="2"/>
<line x1="209.759" y1="120.028" x2="203.17" y2="112.505" stroke="white" stroke-width="2"/>
<line x1="213.792" y1="116.292" x2="206.572" y2="109.373" stroke="white" stroke-width="2"/>
<line x1="217.483" y1="112.22" x2="209.688" y2="105.956" stroke="white" stroke-width="2"/>
<line x1="220.806" y1="107.841" x2="212.495" y2="102.281" stroke="white" stroke-width="2"/>
<line x1="223.735" y1="103.189" x2="214.97" y2="98.3744" stroke="white" stroke-width="2"/>
<line x1="226.247" y1="98.3002" x2="217.096" y2="94.2674" stroke="white" stroke-width="2"/>
<line x1="112.039" y1="98.9132" x2="121.01" y2="94.4955" stroke="white" stroke-width="2"/>
<line x1="114.603" y1="103.775" x2="123.155" y2="98.5924" stroke="white" stroke-width="2"/>
<line x1="117.581" y1="108.395" x2="125.649" y2="102.487" stroke="white" stroke-width="2"/>
<line x1="120.951" y1="112.738" x2="128.473" y2="106.149" stroke="white" stroke-width="2"/>
<line x1="124.686" y1="116.771" x2="131.606" y2="109.551" stroke="white" stroke-width="2"/>
<line x1="128.759" y1="120.462" x2="135.023" y2="112.667" stroke="white" stroke-width="2"/>
<line x1="133.138" y1="123.785" x2="138.698" y2="115.474" stroke="white" stroke-width="2"/>
<line x1="137.789" y1="126.714" x2="142.604" y2="117.949" stroke="white" stroke-width="2"/>
<line x1="142.678" y1="129.225" x2="146.711" y2="120.075" stroke="white" stroke-width="2"/>
<line x1="147.768" y1="131.302" x2="150.988" y2="121.834" stroke="white" stroke-width="2"/>
<line x1="153.019" y1="132.926" x2="155.402" y2="123.214" stroke="white" stroke-width="2"/>
<line x1="158.392" y1="134.087" x2="159.919" y2="124.205" stroke="white" stroke-width="2"/>
<line x1="163.845" y1="134.776" x2="164.505" y2="124.797" stroke="white" stroke-width="2"/>
<path d="M165.487 54.9698C166.522 52.8165 167.039 51.7398 168 51.7398C168.961 51.7398 169.478 52.8165 170.513 54.9698C173.814 61.8411 179.418 74.7761 181.334 86.9412C181.816 89.9964 182.056 91.524 181.241 92.0662C180.427 92.6085 178.918 91.6782 175.902 89.8177C173.571 88.3797 170.797 87.1907 168 87.1907C165.203 87.1907 162.429 88.3797 160.098 89.8177C157.082 91.6782 155.573 92.6085 154.759 92.0662C153.944 91.524 154.184 89.9964 154.666 86.9412C156.582 74.7761 162.186 61.8411 165.487 54.9698Z" fill="#D10026"/>
</svg>
