<svg width="318" height="318" viewBox="0 0 318 318" fill="none" xmlns="http://www.w3.org/2000/svg">
<path d="M152.233 92.262C155.25 86.0693 156.759 82.973 159.5 82.973C162.241 82.973 163.75 86.0693 166.767 92.262C178.093 115.509 199.286 163.403 205.344 207.418C206.583 216.416 207.202 220.915 204.779 222.417C202.356 223.918 198.161 221.059 189.77 215.341C181.227 209.52 170.417 204.183 159.5 204.183C148.583 204.183 137.773 209.52 129.23 215.341C120.839 221.059 116.644 223.918 114.221 222.417C111.798 220.915 112.417 216.416 113.656 207.418C119.714 163.403 140.907 115.509 152.233 92.262Z" fill="#D10026"/>
</svg>
