<svg width="318" height="318" viewBox="0 0 318 318" fill="none" xmlns="http://www.w3.org/2000/svg">
<path d="M159 315.5C245.433 315.5 315.5 245.433 315.5 159C315.5 72.5674 245.433 2.5 159 2.5C72.5674 2.5 2.5 72.5674 2.5 159C2.5 245.433 72.5674 315.5 159 315.5Z" stroke="white" stroke-width="5"/>
<path d="M235.232 30.9622L231.768 28.9622L221.768 46.2827L225.232 48.2827L235.232 30.9622Z" fill="white"/>
<path d="M96.2322 271.717L92.7681 269.717L82.7681 287.038L86.2322 289.038L96.2322 271.717Z" fill="white"/>
<path d="M281.871 74.6927L279.564 71.4251L263.226 82.9608L265.533 86.2284L281.871 74.6927Z" fill="white"/>
<path d="M54.7741 235.04L52.467 231.772L36.1291 243.308L38.4362 246.575L54.7741 235.04Z" fill="white"/>
<path d="M74.6928 36.129L71.4252 38.4361L82.9609 54.774L86.2285 52.4669L74.6928 36.129Z" fill="white"/>
<path d="M235.04 263.226L231.772 265.533L243.308 281.871L246.575 279.564L235.04 263.226Z" fill="white"/>
<path d="M299.505 109.366L298.122 105.613L279.355 112.527L280.738 116.28L299.505 109.366Z" fill="white"/>
<path d="M38.6451 205.472L37.2623 201.719L18.4954 208.633L19.8782 212.386L38.6451 205.472Z" fill="white"/>
<path d="M109.366 18.4954L105.613 19.8782L112.527 38.6451L116.28 37.2623L109.366 18.4954Z" fill="white"/>
<path d="M205.472 279.355L201.719 280.738L208.633 299.505L212.386 298.122L205.472 279.355Z" fill="white"/>
<path d="M223.256 24.5522L219.624 22.876L211.243 41.0352L214.875 42.7114L223.256 24.5522Z" fill="white"/>
<path d="M106.757 276.965L103.125 275.289L94.7438 293.448L98.3757 295.124L106.757 276.965Z" fill="white"/>
<path d="M24.5523 94.7443L22.8761 98.3761L41.0353 106.757L42.7115 103.125L24.5523 94.7443Z" fill="white"/>
<path d="M276.965 211.243L275.289 214.875L293.448 223.256L295.124 219.624L276.965 211.243Z" fill="white"/>
<path d="M255.864 45.7641L252.79 43.205L239.994 58.5762L243.069 61.1353L255.864 45.7641Z" fill="white"/>
<path d="M78.0061 259.424L74.9318 256.865L62.1363 272.236L65.2105 274.795L78.0061 259.424Z" fill="white"/>
<path d="M45.7642 62.1361L43.2051 65.2103L58.5763 78.0058L61.1354 74.9316L45.7642 62.1361Z" fill="white"/>
<path d="M259.424 239.994L256.865 243.068L272.236 255.864L274.795 252.789L259.424 239.994Z" fill="white"/>
<path d="M172.739 287.282L168.756 287.646L170.577 307.563L174.561 307.199L172.739 287.282Z" fill="white"/>
<path d="M10.437 170.577L10.8013 174.56L30.7182 172.739L30.3539 168.755L10.437 170.577Z" fill="white"/>
<path d="M287.282 145.261L287.646 149.244L307.563 147.423L307.199 143.439L287.282 145.261Z" fill="white"/>
<path d="M186.269 12.5028L182.327 11.8237L178.931 31.5333L182.873 32.2125L186.269 12.5028Z" fill="white"/>
<path d="M139.069 286.467L135.127 285.788L131.731 305.498L135.673 306.177L139.069 286.467Z" fill="white"/>
<path d="M12.5029 131.731L11.8238 135.673L31.5334 139.069L32.2126 135.127L12.5029 131.731Z" fill="white"/>
<path d="M286.467 178.931L285.788 182.873L305.498 186.269L306.177 182.327L286.467 178.931Z" fill="white"/>
<path d="M30.9622 82.7679L28.9622 86.232L46.2827 96.232L48.2827 92.7679L30.9622 82.7679Z" fill="white"/>
<path d="M271.717 221.768L269.717 225.232L287.038 235.232L289.038 231.768L271.717 221.768Z" fill="white"/>
<path d="M265.773 55.0553L262.945 52.2269L248.803 66.369L251.631 69.1975L265.773 55.0553Z" fill="white"/>
<path d="M69.1974 251.631L66.369 248.803L52.2269 262.945L55.0553 265.774L69.1974 251.631Z" fill="white"/>
<path d="M55.0553 52.2269L52.2269 55.0553L66.369 69.1974L69.1975 66.369L55.0553 52.2269Z" fill="white"/>
<path d="M251.631 248.803L248.803 251.631L262.945 265.773L265.774 262.945L251.631 248.803Z" fill="white"/>
<path d="M161 288H157V308H161V288Z" fill="white"/>
<path d="M9.99994 157V161H29.9999V157H9.99994Z" fill="white"/>
<path d="M288 157V161H308V157H288Z" fill="white"/>
<path d="M199.496 15.5947L195.632 14.5594L190.456 33.8779L194.319 34.9132L199.496 15.5947Z" fill="white"/>
<path d="M127.544 284.122L123.68 283.087L118.504 302.406L122.367 303.441L127.544 284.122Z" fill="white"/>
<path d="M15.5947 118.504L14.5594 122.368L33.8779 127.544L34.9132 123.681L15.5947 118.504Z" fill="white"/>
<path d="M284.122 190.456L283.087 194.32L302.406 199.496L303.441 195.633L284.122 190.456Z" fill="white"/>
<path d="M289.038 86.232L287.038 82.7679L269.717 92.7679L271.717 96.232L289.038 86.232Z" fill="white"/>
<path d="M48.2827 225.232L46.2827 221.768L28.9622 231.768L30.9622 235.232L48.2827 225.232Z" fill="white"/>
<path d="M86.232 28.9622L82.7679 30.9622L92.7679 48.2827L96.232 46.2827L86.232 28.9622Z" fill="white"/>
<path d="M225.232 269.717L221.768 271.717L231.768 289.038L235.232 287.038L225.232 269.717Z" fill="white"/>
<path d="M303.44 122.368L302.405 118.504L283.086 123.68L284.122 127.544L303.44 122.368Z" fill="white"/>
<path d="M34.9133 194.32L33.878 190.456L14.5595 195.632L15.5948 199.496L34.9133 194.32Z" fill="white"/>
<path d="M122.368 14.5594L118.504 15.5947L123.68 34.9132L127.544 33.8779L122.368 14.5594Z" fill="white"/>
<path d="M194.32 283.087L190.456 284.122L195.632 303.441L199.496 302.405L194.32 283.087Z" fill="white"/>
<path d="M134.579 12.0013L130.642 12.7097L134.184 32.3935L138.121 31.6851L134.579 12.0013Z" fill="white"/>
<path d="M183.816 285.607L179.879 286.315L183.421 305.999L187.358 305.29L183.816 285.607Z" fill="white"/>
<path d="M12.0013 183.421L12.7097 187.358L32.3936 183.816L31.6852 179.879L12.0013 183.421Z" fill="white"/>
<path d="M285.607 134.184L286.315 138.121L305.999 134.579L305.29 130.642L285.607 134.184Z" fill="white"/>
<path d="M150.202 287.716L146.216 287.381L144.543 307.311L148.529 307.646L150.202 287.716Z" fill="white"/>
<path d="M10.6895 144.543L10.3549 148.529L30.2848 150.202L30.6194 146.216L10.6895 144.543Z" fill="white"/>
<path d="M287.715 167.798L287.38 171.784L307.31 173.457L307.645 169.471L287.715 167.798Z" fill="white"/>
<path d="M211.351 19.485L207.587 18.1301L200.813 36.9479L204.576 38.3027L211.351 19.485Z" fill="white"/>
<path d="M117.188 281.052L113.424 279.697L106.65 298.515L110.413 299.87L117.188 281.052Z" fill="white"/>
<path d="M19.485 106.649L18.1301 110.413L36.9479 117.187L38.3027 113.424L19.485 106.649Z" fill="white"/>
<path d="M281.052 200.812L279.697 204.576L298.515 211.35L299.87 207.587L281.052 200.812Z" fill="white"/>
<path d="M245.676 37.7881L242.391 35.5053L230.977 51.9286L234.262 54.2113L245.676 37.7881Z" fill="white"/>
<path d="M87.0228 266.072L83.7382 263.789L72.3243 280.212L75.609 282.495L87.0228 266.072Z" fill="white"/>
<path d="M37.7881 72.3243L35.5053 75.609L51.9286 87.0229L54.2113 83.7382L37.7881 72.3243Z" fill="white"/>
<path d="M266.072 230.977L263.789 234.262L280.212 245.676L282.495 242.391L266.072 230.977Z" fill="white"/>
<path d="M274.094 64.3515L271.512 61.2964L256.236 74.2059L258.818 77.261L274.094 64.3515Z" fill="white"/>
<path d="M61.7632 243.794L59.1813 240.739L43.9057 253.649L46.4876 256.704L61.7632 243.794Z" fill="white"/>
<path d="M64.3515 43.9058L61.2964 46.4877L74.2059 61.7633L77.261 59.1814L64.3515 43.9058Z" fill="white"/>
<path d="M243.794 256.237L240.739 258.819L253.649 274.095L256.704 271.513L243.794 256.237Z" fill="white"/>
<path d="M294.669 97.3652L292.966 93.7459L274.87 102.262L276.573 105.881L294.669 97.3652Z" fill="white"/>
<path d="M43.1302 215.738L41.427 212.119L23.3307 220.635L25.0339 224.254L43.1302 215.738Z" fill="white"/>
<path d="M97.3653 23.3307L93.746 25.0339L102.262 43.1302L105.881 41.427L97.3653 23.3307Z" fill="white"/>
<path d="M215.738 274.87L212.119 276.573L220.635 294.669L224.254 292.966L215.738 274.87Z" fill="white"/>
<path d="M167.184 12.2V29H164.616L155.352 17.624V29H152.256V12.2H154.824L164.088 23.576V12.2H167.184Z" fill="white"/>
</svg>
